<?xml version="1.0" encoding="UTF-8" standalone="no"?>
<svg
   xmlns:dc="http://purl.org/dc/elements/1.1/"
   xmlns:cc="http://creativecommons.org/ns#"
   xmlns:rdf="http://www.w3.org/1999/02/22-rdf-syntax-ns#"
   xmlns:svg="http://www.w3.org/2000/svg"
   xmlns="http://www.w3.org/2000/svg"
   xmlns:sodipodi="http://sodipodi.sourceforge.net/DTD/sodipodi-0.dtd"
   xmlns:inkscape="http://www.inkscape.org/namespaces/inkscape"
   version="1.1"
   id="svg20"
   width="225.60001"
   height="225.60001"
   viewBox="0 0 225.60001 225.60001"
   sodipodi:docname="roedeer.svg"
   inkscape:version="1.0.2-2 (e86c870879, 2021-01-15)">
  <metadata
     id="metadata26">
    <rdf:RDF>
      <cc:Work
         rdf:about="">
        <dc:format>image/svg+xml</dc:format>
        <dc:type
           rdf:resource="http://purl.org/dc/dcmitype/StillImage" />
        <dc:title></dc:title>
      </cc:Work>
    </rdf:RDF>
  </metadata>
  <defs
     id="defs24" />
  <sodipodi:namedview
     pagecolor="#ffffff"
     bordercolor="#666666"
     borderopacity="1"
     objecttolerance="10"
     gridtolerance="10"
     guidetolerance="10"
     inkscape:pageopacity="0"
     inkscape:pageshadow="2"
     inkscape:window-width="1920"
     inkscape:window-height="1057"
     id="namedview22"
     showgrid="false"
     inkscape:zoom="2.8284271"
     inkscape:cx="116.20304"
     inkscape:cy="108.1688"
     inkscape:window-x="1912"
     inkscape:window-y="-8"
     inkscape:window-maximized="1"
     inkscape:current-layer="g28" />
  <g
     inkscape:groupmode="layer"
     inkscape:label="Image"
     id="g28">
    <path
       style="fill:#000000;stroke:#000000;stroke-width:1.28618"
       d="M 32.722987,0.79069036 C 37.073502,35.035449 59.59084,59.589459 72.594668,90.823521 l -7.717099,2.572367 C 60.083834,73.213744 33.698814,61.841312 14.716421,57.382758 c 1.348049,17.082187 4.597205,38.468976 16.855302,51.395882 6.826419,7.19877 23.871691,11.96536 27.75815,20.86834 2.934685,6.72288 -0.455566,16.89015 0.82573,24.19953 1.249141,7.12674 5.237597,14.03483 8.187458,20.57893 8.158646,18.09789 18.272291,50.4171 42.837109,51.07434 7.65022,0.2045 16.29079,-6.12995 21.73006,-10.95571 13.54866,-12.01809 25.94618,-44.43506 30.00666,-61.98374 1.69133,-7.31067 -2.77815,-16.11716 1.03281,-23.01754 4.89264,-8.86053 19.30818,-13.02133 26.58669,-20.0246 12.67405,-12.193656 16.38469,-35.295435 17.10752,-52.135432 -19.47538,5.008652 -44.37203,15.764613 -50.16114,36.01313 l -7.7171,-2.572367 c 12.84254,-30.8455 37.16298,-55.765178 39.87168,-90.03283064 L 165.19987,38.090005 C 163.55227,27.095711 156.158,8.6038676 145.90711,3.3630568 c 3.64505,14.0912952 9.05731,34.4384572 5.75054,48.8749652 -2.66883,11.645749 -10.30234,21.868333 -13.46763,33.440766 -18.004,-3.34433 -36.01572,-3.34433 -54.019703,0 C 81.980076,73.392001 73.056408,63.135212 70.524428,50.951839 67.550901,36.643435 73.716091,17.477246 76.453218,3.3630568 64.687342,9.3784071 61.632656,27.164265 55.874285,38.090005 50.577139,26.892494 42.059262,8.7939655 32.722987,0.79069036 M 72.594668,11.080156 67.197843,52.238022 80.311768,88.251155 75.167035,89.537338 C 61.457735,66.04906 49.687101,33.941293 72.594668,11.080156 m 78.457182,0 c 11.78787,20.273207 16.17633,38.952576 5.46242,60.450617 -3.48169,6.986547 -5.32737,17.013886 -14.4657,16.720382 l 13.4419,-37.299316 -4.43862,-39.871683 M 21.147337,65.099857 C 43.985579,77.116412 62.28668,89.921009 62.305201,117.83337 38.879432,114.67836 27.278444,105.23135 22.433521,81.820239 c 17.55653,0.158843 16.339543,19.386891 32.154581,24.437481 v -1.28618 C 37.930486,99.304359 41.530641,78.353841 21.147337,76.675506 V 65.099857 m 182.638033,0 -2.57237,11.575649 c -19.6606,1.729528 -17.12939,22.747316 -33.44077,28.296034 v 1.28618 c 15.99627,-4.7518 14.75381,-24.279924 32.15459,-24.437481 -3.30035,24.387321 -17.04836,30.438811 -38.5855,36.013131 0,-26.499488 16.59433,-45.286646 42.44405,-52.733513 m -66.88154,24.437481 -11.52549,47.588792 5.09458,47.58878 c -13.0046,-3.44054 -25.58092,-3.44054 -38.585514,0 l 5.12544,-46.3026 -11.556345,-48.874972 c 16.801399,-4.139192 34.680649,-4.337773 51.447329,0 m -55.305879,1.286183 c 13.677262,23.438119 13.076614,53.846079 -2.572367,75.884819 -12.406909,-3.65147 -24.781279,-23.91271 -15.398442,-36.5739 7.081596,-9.55636 19.463682,2.61095 21.829359,9.56406 2.722849,-14.14287 -12.093595,-14.1313 -17.97081,-22.52108 -7.548482,-10.77565 4.358361,-23.886865 14.11226,-26.353899 M 135.61765,139.6985 h 1.28618 c 2.6624,-6.05021 15.1088,-19.2992 21.82911,-9.72612 9.33126,13.2927 -2.27011,32.94558 -15.39819,36.73596 -15.56668,-23.0947 -15.41877,-51.36502 -2.57237,-75.884819 10.31648,2.480284 21.5603,15.216839 13.9178,26.369329 -6.3859,9.31712 -17.62329,8.5467 -19.06253,22.50565 m -69.453898,0 c 1.789724,11.16664 10.033001,9.85602 19.292749,11.57565 -3.512695,-10.04509 -8.862317,-13.48178 -19.292749,-11.57565 m 72.026268,11.57565 c 8.69974,-2.07204 16.77569,-0.62895 18.00657,-11.57565 -9.50619,-1.56786 -16.84901,1.18972 -18.00657,11.57565 m -51.447336,-11.57565 1.286183,1.28618 -1.286183,-1.28618 m 6.430905,9.00328 -7.717088,42.44405 h -1.286184 c -9.101804,-15.59755 -2.070369,-29.07932 9.003272,-42.44405 m 37.299331,0 c 5.24762,12.60588 23.24905,30.1417 6.43091,41.15786 -2.47333,-11.99237 -9.32997,-29.08189 -6.43091,-41.15786 m -31.815046,45.98234 c 3.747936,-1.20902 5.625766,4.58267 1.893266,5.78525 -3.747942,1.20901 -5.625769,-4.58267 -1.893266,-5.78525 m 23.151316,0 c 3.74793,-1.20902 5.62576,4.58267 1.89326,5.78525 -3.74794,1.20901 -5.62577,-4.58267 -1.89326,-5.78525 m -17.05995,14.46827 v 2.57237 l -6.430918,3.85855 H 124.042 l -6.43092,-5.14474 12.86184,-1.28618 c -4.79875,16.94547 -33.731459,16.9236 -38.585514,0 z"
       id="path32" />
  </g>
</svg>
